<?xml version="1.0" encoding="utf-8"?>
<!-- Generator: Adobe Illustrator 17.1.0, SVG Export Plug-In . SVG Version: 6.00 Build 0)  -->
<!DOCTYPE svg PUBLIC "-//W3C//DTD SVG 1.1//EN" "http://www.w3.org/Graphics/SVG/1.1/DTD/svg11.dtd">
<svg version="1.1" id="圖層_1" xmlns="http://www.w3.org/2000/svg" xmlns:xlink="http://www.w3.org/1999/xlink" x="0px" y="0px"
	 viewBox="0 0 2160 1350" enable-background="new 0 0 2160 1350" xml:space="preserve">
<path fill="#FFFFFF" d="M1167.394,688.238h-2.344c-2.096-11.724-12.323-20.631-24.65-20.631c-3.143,0-6.138,0.604-8.91,1.66
	c-2.252-7.965-9.557-13.807-18.242-13.807c-4.255,0-8.168,1.418-11.333,3.782c-4.434-17.394-20.202-30.257-38.976-30.257
	c-19.245,0-35.323,13.519-39.28,31.576c-1.535-0.294-3.115-0.461-4.736-0.461c-13.831,0-25.044,11.213-25.044,25.044
	c0,1.05,0.085,2.078,0.211,3.095h-2.758c-8.791,0-15.917,7.126-15.917,15.917v0.322c0,8.791,7.126,15.917,15.917,15.917h176.063
	c8.791,0,15.917-7.126,15.917-15.917v-0.322C1183.311,695.365,1176.184,688.238,1167.394,688.238z"/>
</svg>
